<?xml version="1.0" encoding="UTF-8" standalone="no"?>
<svg width="512" height="512" viewBox="0 0 512 512" version="1.1" id="svg1" xml:space="preserve" xmlns="http://www.w3.org/2000/svg"><defs
     id="defs1" />
    <path
        d="M 163.14367,294.59441 201.481,243.55784 q 1.43766,-1.91688 3.47433,-2.87531 2.03667,-0.95845 4.19314,-0.95845 2.15648,0 4.19315,0.95845 2.03667,0.95843 3.47432,2.87531 l 32.58674,43.3691 q 1.43763,1.91686 3.3545,2.8753 1.91688,0.95844 4.31296,0.95844 5.9902,0 8.6259,-5.39119 2.6357,-5.39119 -0.95844,-10.18336 l -24.44005,-32.34712 28.27378,-37.61852 q 1.43766,-1.91686 3.47433,-2.87529 2.03667,-0.95843 4.19315,-0.95843 2.15647,0 4.19314,0.95843 2.03667,0.95843 3.47431,2.87529 l 67.09035,89.37392 q 3.59412,4.79216 0.95842,10.06355 -2.63568,5.27137 -8.6259,5.27137 H 170.81114 q -5.99021,0 -8.6259,-5.27137 -2.63569,-5.27139 0.95843,-10.06355 z"
        id="path1" style="display:inline;fill:#ffffff;stroke-width:0.239608" /></svg>
